<?xml version="1.0" standalone="no"?>
<!DOCTYPE svg PUBLIC "-//W3C//DTD SVG 20010904//EN"
 "http://www.w3.org/TR/2001/REC-SVG-20010904/DTD/svg10.dtd">
<svg version="1.0" xmlns="http://www.w3.org/2000/svg"
 width="512.000000pt" height="512.000000pt" viewBox="0 0 512.000000 512.000000"
 preserveAspectRatio="xMidYMid meet">

<g transform="translate(0.000000,512.000000) scale(0.100000,-0.100000)"
fill="#000000" stroke="none">
<path d="M2340 4360 c-89 -8 -196 -57 -264 -121 -79 -72 -136 -212 -136 -332
0 -42 -6 -69 -20 -92 -28 -45 -16 -93 61 -248 112 -224 195 -330 301 -388 57
-31 71 -34 143 -34 65 0 89 5 125 24 118 62 207 173 316 396 88 180 93 198 65
251 -14 26 -21 57 -21 94 0 171 -93 326 -240 400 -100 50 -186 63 -330 50z
m473 -422 c10 -12 17 -36 17 -62 0 -48 -32 -124 -55 -133 -22 -8 -169 13 -272
38 l-82 20 -78 -24 c-117 -37 -226 -53 -258 -39 -46 21 -79 136 -56 196 l11
28 128 -6 c70 -3 172 -8 227 -11 68 -4 124 -1 175 8 102 20 219 13 243 -15z"/>
<path d="M2959 4255 c-34 -18 -81 -88 -74 -108 6 -13 11 -12 42 9 67 45 102
34 263 -82 58 -42 131 -89 162 -105 65 -33 176 -53 214 -39 39 15 27 30 -24
30 -59 0 -186 31 -241 60 -41 21 -185 149 -177 157 2 3 58 -14 123 -36 103
-35 131 -41 204 -41 120 0 178 19 179 57 0 8 -9 9 -31 3 -18 -5 -68 -14 -111
-20 -122 -17 -192 -2 -339 70 -128 63 -148 68 -190 45z"/>
<path d="M1426 4074 c-9 -8 -16 -25 -16 -37 0 -22 90 -183 326 -587 198 -337
188 -317 167 -328 -10 -5 -40 -15 -68 -21 -77 -19 -162 -69 -211 -125 -45 -52
-110 -173 -120 -226 l-6 -30 936 0 c771 0 936 2 936 13 0 25 -52 142 -87 194
-58 88 -139 140 -268 173 -41 10 -105 20 -144 21 -63 2 -77 -2 -153 -39 -114
-57 -233 -86 -319 -79 -81 7 -202 46 -285 93 -58 32 -65 40 -120 136 -31 57
-99 173 -149 258 -51 85 -141 241 -200 345 -59 105 -119 205 -132 223 -27 35
-61 42 -87 16z"/>
<path d="M4671 3024 c0 -11 3 -14 6 -6 3 7 2 16 -1 19 -3 4 -6 -2 -5 -13z"/>
<path d="M4682 2920 c0 -19 2 -27 5 -17 2 9 2 25 0 35 -3 9 -5 1 -5 -18z"/>
<path d="M4698 2854 c-5 -4 -8 -44 -8 -88 0 -199 -41 -464 -101 -654 -174
-548 -511 -982 -996 -1279 -157 -96 -253 -140 -427 -198 -269 -89 -482 -125
-734 -125 -402 0 -773 99 -1147 307 -27 16 -53 33 -57 38 -5 6 -8 6 -8 1 0 -6
-7 -1 -15 10 -8 10 -15 15 -15 10 0 -6 -7 -1 -15 10 -8 10 -15 15 -15 10 0 -6
-6 -1 -14 9 -7 10 -21 20 -30 21 -14 2 -15 0 -5 -12 6 -8 14 -12 17 -9 3 3 11
-4 18 -14 26 -37 403 -272 459 -285 6 -2 24 -9 40 -16 17 -7 45 -19 64 -27 18
-9 39 -16 45 -18 6 -1 18 -5 26 -8 27 -11 153 -45 240 -66 78 -19 114 -25 265
-48 28 -4 138 -7 245 -7 156 1 221 5 325 23 401 70 686 191 1000 425 111 82
369 343 440 446 180 256 260 419 334 680 46 161 56 209 76 359 21 163 16 529
-7 505z"/>
<path d="M1187 2660 c-47 -37 -58 37 134 -935 71 -359 81 -402 104 -425 l25
-25 980 0 979 0 21 21 c27 26 45 111 215 985 55 287 60 324 49 354 -18 46 15
45 -1272 45 -1199 0 -1210 0 -1235 -20z m2262 -119 c117 -60 146 -218 58 -318
-150 -170 -417 -20 -356 201 13 47 81 117 129 133 47 16 120 9 169 -16z"/>
<path d="M3246 2452 c-8 -16 -20 -50 -27 -75 -10 -40 -9 -51 5 -73 36 -54 183
-86 218 -46 18 19 48 103 48 132 0 46 -45 33 -55 -17 -8 -46 -25 -81 -41 -87
-22 -9 -113 23 -124 44 -8 14 -5 33 11 74 11 31 18 60 14 66 -12 19 -34 10
-49 -18z"/>
<path d="M1350 1220 c-6 -12 -8 -30 -5 -40 6 -20 20 -20 1082 -18 1012 3 1076
4 1087 21 8 12 8 22 0 35 -11 16 -75 17 -1082 20 -1070 2 -1071 2 -1082 -18z"/>
</g>
</svg>
